<svg width="491" height="903" viewBox="0 0 491 903" fill="none" xmlns="http://www.w3.org/2000/svg">
<g clip-path="url(#clip0_827_55)" filter="url(#filter0_d_827_55)">
<rect width="411" height="823" transform="translate(30 30)" fill="white"/>
<path d="M148.182 561C147.91 561 147.678 560.92 147.486 560.76C147.31 560.584 147.222 560.36 147.222 560.088V544.968C147.222 544.664 147.31 544.424 147.486 544.248C147.662 544.056 147.902 543.96 148.206 543.96C148.51 543.96 148.75 544.056 148.926 544.248C149.102 544.424 149.19 544.664 149.19 544.968V559.32H156.942C157.23 559.32 157.454 559.392 157.614 559.536C157.774 559.68 157.854 559.888 157.854 560.16C157.854 560.432 157.774 560.64 157.614 560.784C157.454 560.928 157.23 561 156.942 561H148.182ZM164.36 561.168C163.256 561.168 162.28 560.92 161.432 560.424C160.6 559.928 159.952 559.224 159.488 558.312C159.04 557.384 158.816 556.312 158.816 555.096C158.816 553.88 159.04 552.816 159.488 551.904C159.952 550.976 160.6 550.264 161.432 549.768C162.28 549.272 163.256 549.024 164.36 549.024C165.464 549.024 166.44 549.272 167.288 549.768C168.136 550.264 168.784 550.976 169.232 551.904C169.696 552.816 169.928 553.88 169.928 555.096C169.928 556.312 169.696 557.384 169.232 558.312C168.784 559.224 168.136 559.928 167.288 560.424C166.44 560.92 165.464 561.168 164.36 561.168ZM164.36 559.56C165.512 559.56 166.392 559.184 167 558.432C167.624 557.664 167.936 556.552 167.936 555.096C167.936 553.672 167.624 552.576 167 551.808C166.376 551.024 165.496 550.632 164.36 550.632C163.224 550.632 162.344 551.024 161.72 551.808C161.096 552.576 160.784 553.672 160.784 555.096C160.784 556.536 161.088 557.64 161.696 558.408C162.32 559.176 163.208 559.56 164.36 559.56ZM181.944 549.072C182.248 549.072 182.488 549.16 182.664 549.336C182.84 549.512 182.928 549.744 182.928 550.032V560.208C182.928 561.952 182.48 563.264 181.584 564.144C180.688 565.04 179.36 565.488 177.6 565.488C175.888 565.488 174.464 565.152 173.328 564.48C172.752 564.16 172.464 563.792 172.464 563.376C172.464 563.152 172.52 562.968 172.632 562.824C172.76 562.68 172.92 562.608 173.112 562.608C173.272 562.608 173.56 562.72 173.976 562.944C174.536 563.232 175.088 563.464 175.632 563.64C176.176 563.816 176.824 563.904 177.576 563.904C178.712 563.904 179.568 563.6 180.144 562.992C180.72 562.4 181.008 561.528 181.008 560.376V558.312C180.672 559.064 180.152 559.64 179.448 560.04C178.76 560.44 177.944 560.64 177 560.64C175.976 560.64 175.064 560.4 174.264 559.92C173.48 559.44 172.864 558.76 172.416 557.88C171.984 557 171.768 555.984 171.768 554.832C171.768 553.68 171.984 552.664 172.416 551.784C172.864 550.904 173.48 550.224 174.264 549.744C175.064 549.264 175.976 549.024 177 549.024C177.928 549.024 178.736 549.224 179.424 549.624C180.112 550.024 180.632 550.592 180.984 551.328V550.032C180.984 549.744 181.064 549.512 181.224 549.336C181.4 549.16 181.64 549.072 181.944 549.072ZM177.384 559.032C178.504 559.032 179.384 558.664 180.024 557.928C180.664 557.176 180.984 556.144 180.984 554.832C180.984 553.536 180.664 552.52 180.024 551.784C179.4 551.032 178.52 550.656 177.384 550.656C176.248 550.656 175.352 551.032 174.696 551.784C174.056 552.52 173.736 553.536 173.736 554.832C173.736 556.144 174.056 557.176 174.696 557.928C175.352 558.664 176.248 559.032 177.384 559.032ZM187.151 561.12C186.863 561.12 186.623 561.04 186.431 560.88C186.255 560.704 186.167 560.464 186.167 560.16V550.032C186.167 549.728 186.255 549.496 186.431 549.336C186.623 549.16 186.863 549.072 187.151 549.072C187.439 549.072 187.671 549.16 187.847 549.336C188.023 549.496 188.111 549.728 188.111 550.032V560.16C188.111 560.48 188.023 560.72 187.847 560.88C187.671 561.04 187.439 561.12 187.151 561.12ZM187.151 546.552C186.767 546.552 186.455 546.44 186.215 546.216C185.975 545.992 185.855 545.696 185.855 545.328C185.855 544.976 185.975 544.688 186.215 544.464C186.455 544.24 186.767 544.128 187.151 544.128C187.535 544.128 187.847 544.24 188.087 544.464C188.327 544.688 188.447 544.976 188.447 545.328C188.447 545.696 188.327 545.992 188.087 546.216C187.847 546.44 187.535 546.552 187.151 546.552ZM197.265 549.024C200.065 549.024 201.465 550.568 201.465 553.656V560.16C201.465 560.464 201.377 560.704 201.201 560.88C201.041 561.04 200.809 561.12 200.505 561.12C200.201 561.12 199.961 561.04 199.785 560.88C199.609 560.704 199.521 560.464 199.521 560.16V553.776C199.521 552.688 199.305 551.896 198.873 551.4C198.457 550.904 197.785 550.656 196.857 550.656C195.785 550.656 194.929 550.984 194.289 551.64C193.649 552.296 193.329 553.184 193.329 554.304V560.16C193.329 560.464 193.241 560.704 193.065 560.88C192.905 561.04 192.673 561.12 192.369 561.12C192.065 561.12 191.825 561.04 191.649 560.88C191.473 560.704 191.385 560.464 191.385 560.16V550.032C191.385 549.744 191.473 549.512 191.649 549.336C191.825 549.16 192.065 549.072 192.369 549.072C192.657 549.072 192.881 549.16 193.041 549.336C193.217 549.512 193.305 549.736 193.305 550.008V551.232C193.689 550.512 194.225 549.968 194.913 549.6C195.601 549.216 196.385 549.024 197.265 549.024Z" fill="white"/>
<g filter="url(#filter1_d_827_55)">
<path d="M361.635 793.224C368.496 772.766 402.182 724.778 483.815 714L471.429 911.755C471.94 913.143 471.89 914.642 471.145 916.292L471.429 911.755C466.458 898.244 408.307 895.245 419.198 865.655C391.202 860.954 339.333 840.161 355.816 794.595C356.206 793.515 361.076 800.302 361.635 793.224Z" fill="#4F77DF"/>
</g>
<g filter="url(#filter2_d_827_55)">
<path d="M122.686 162.628C108.312 187.833 56.1906 241.16 -32.9989 228.744L49.5257 -32.6557C49.4796 -34.6875 50.0599 -36.6834 51.4193 -38.6538L49.5257 -32.6557C49.9739 -12.8806 109.751 10.2966 87.9489 46.4338C115.582 61.9648 162.528 106.962 129.255 162.704C128.467 164.025 125.761 153.31 122.686 162.628Z" fill="#4F77DF"/>
</g>
</g>
<defs>
<filter id="filter0_d_827_55" x="0" y="0" width="491" height="903" filterUnits="userSpaceOnUse" color-interpolation-filters="sRGB">
<feFlood flood-opacity="0" result="BackgroundImageFix"/>
<feColorMatrix in="SourceAlpha" type="matrix" values="0 0 0 0 0 0 0 0 0 0 0 0 0 0 0 0 0 0 127 0" result="hardAlpha"/>
<feOffset dx="10" dy="10"/>
<feGaussianBlur stdDeviation="20"/>
<feColorMatrix type="matrix" values="0 0 0 0 0 0 0 0 0 0 0 0 0 0 0 0 0 0 0.3 0"/>
<feBlend mode="normal" in2="BackgroundImageFix" result="effect1_dropShadow_827_55"/>
<feBlend mode="normal" in="SourceGraphic" in2="effect1_dropShadow_827_55" result="shape"/>
</filter>
<filter id="filter1_d_827_55" x="348.649" y="714" width="139.166" height="210.292" filterUnits="userSpaceOnUse" color-interpolation-filters="sRGB">
<feFlood flood-opacity="0" result="BackgroundImageFix"/>
<feColorMatrix in="SourceAlpha" type="matrix" values="0 0 0 0 0 0 0 0 0 0 0 0 0 0 0 0 0 0 127 0" result="hardAlpha"/>
<feOffset dy="4"/>
<feGaussianBlur stdDeviation="2"/>
<feColorMatrix type="matrix" values="0 0 0 0 0 0 0 0 0 0 0 0 0 0 0 0 0 0 0.1 0"/>
<feBlend mode="normal" in2="BackgroundImageFix" result="effect1_dropShadow_827_55"/>
<feBlend mode="normal" in="SourceGraphic" in2="effect1_dropShadow_827_55" result="shape"/>
</filter>
<filter id="filter2_d_827_55" x="-36.999" y="-38.6538" width="181.729" height="277.244" filterUnits="userSpaceOnUse" color-interpolation-filters="sRGB">
<feFlood flood-opacity="0" result="BackgroundImageFix"/>
<feColorMatrix in="SourceAlpha" type="matrix" values="0 0 0 0 0 0 0 0 0 0 0 0 0 0 0 0 0 0 127 0" result="hardAlpha"/>
<feOffset dy="4"/>
<feGaussianBlur stdDeviation="2"/>
<feColorMatrix type="matrix" values="0 0 0 0 0 0 0 0 0 0 0 0 0 0 0 0 0 0 0.1 0"/>
<feBlend mode="normal" in2="BackgroundImageFix" result="effect1_dropShadow_827_55"/>
<feBlend mode="normal" in="SourceGraphic" in2="effect1_dropShadow_827_55" result="shape"/>
</filter>
<clipPath id="clip0_827_55">
<rect width="411" height="823" fill="white" transform="translate(30 30)"/>
</clipPath>
</defs>
</svg>
